<?xml version="1.0" encoding="UTF-8"?>
<!DOCTYPE svg PUBLIC "-//W3C//DTD SVG 1.1//EN" "http://www.w3.org/Graphics/SVG/1.1/DTD/svg11.dtd">
<svg xmlns="http://www.w3.org/2000/svg" version="1.1" width="368px" height="368px" style="shape-rendering:geometricPrecision; text-rendering:geometricPrecision; image-rendering:optimizeQuality; fill-rule:evenodd; clip-rule:evenodd" xmlns:xlink="http://www.w3.org/1999/xlink">
<g><path style="opacity:0.994" fill="#eedd88" d="M 182.5,-0.5 C 182.833,-0.5 183.167,-0.5 183.5,-0.5C 229.809,60.8148 276.142,122.148 322.5,183.5C 276.491,244.863 230.491,306.196 184.5,367.5C 183.833,367.5 183.167,367.5 182.5,367.5C 136.106,306.443 90.1064,245.109 44.5,183.5C 90.1064,121.891 136.106,60.5572 182.5,-0.5 Z"/></g>
<g><path style="opacity:1" fill="#335588" d="M 135.5,90.5 C 136.822,90.33 137.989,90.6634 139,91.5C 153.322,120.813 168.156,149.813 183.5,178.5C 198.844,149.813 213.678,120.813 228,91.5C 229.011,90.6634 230.178,90.33 231.5,90.5C 215.693,152.06 200.36,213.727 185.5,275.5C 184.167,275.5 182.833,275.5 181.5,275.5C 166.64,213.727 151.307,152.06 135.5,90.5 Z"/></g>
</svg>
